<mxfile host="app.diagrams.net" modified="2021-07-31T08:11:35.036Z" agent="5.0 (Macintosh; Intel Mac OS X 10_15_7) AppleWebKit/537.36 (KHTML, like Gecko) Chrome/92.0.4515.107 Safari/537.36" etag="9cz36fQ8aFReekHzfKeH" version="14.9.3" type="github">
  <diagram id="uR0QmgHeQthe4gF-VEY_" name="Page-1">
    <mxGraphModel dx="946" dy="2249" grid="1" gridSize="10" guides="1" tooltips="1" connect="1" arrows="1" fold="1" page="1" pageScale="1" pageWidth="827" pageHeight="1169" math="0" shadow="0">
      <root>
        <mxCell id="0" />
        <mxCell id="1" parent="0" />
        <mxCell id="kWGqglS77Hu63aXjjs5o-1" value="dark.scss" style="rounded=0;whiteSpace=wrap;html=1;fillColor=#1ba1e2;strokeColor=#006EAF;fontColor=#ffffff;" parent="1" vertex="1">
          <mxGeometry x="218" y="1030" width="112" height="60" as="geometry" />
        </mxCell>
        <mxCell id="kWGqglS77Hu63aXjjs5o-2" value="light.scss" style="rounded=0;whiteSpace=wrap;html=1;fillColor=#1ba1e2;strokeColor=#006EAF;fontColor=#ffffff;" parent="1" vertex="1">
          <mxGeometry x="98" y="1030" width="120" height="60" as="geometry" />
        </mxCell>
        <mxCell id="kWGqglS77Hu63aXjjs5o-4" value="customer-A.scss" style="rounded=0;whiteSpace=wrap;html=1;fillColor=#1ba1e2;strokeColor=#006EAF;fontColor=#ffffff;" parent="1" vertex="1">
          <mxGeometry x="330" y="1030" width="112" height="60" as="geometry" />
        </mxCell>
        <mxCell id="ekt1hA2vBkNq1eMBEix6-1" value="customer-A.scss" style="rounded=0;whiteSpace=wrap;html=1;fillColor=#dae8fc;strokeColor=#6c8ebf;" parent="1" vertex="1">
          <mxGeometry x="332" y="790" width="116" height="60" as="geometry" />
        </mxCell>
        <mxCell id="ekt1hA2vBkNq1eMBEix6-3" value="风格变量" style="rounded=0;whiteSpace=wrap;html=1;fillColor=#dae8fc;strokeColor=#6c8ebf;" parent="1" vertex="1">
          <mxGeometry x="510" y="849.5" width="120" height="60" as="geometry" />
        </mxCell>
        <mxCell id="ekt1hA2vBkNq1eMBEix6-4" value="组件变量" style="rounded=0;whiteSpace=wrap;html=1;fillColor=#dae8fc;strokeColor=#6c8ebf;" parent="1" vertex="1">
          <mxGeometry x="510" y="729.5" width="120" height="60" as="geometry" />
        </mxCell>
        <mxCell id="gL-bYp8mY6dympsh6ueu-11" style="edgeStyle=orthogonalEdgeStyle;rounded=0;orthogonalLoop=1;jettySize=auto;html=1;exitX=0;exitY=0.5;exitDx=0;exitDy=0;entryX=0;entryY=0.5;entryDx=0;entryDy=0;" parent="1" source="ekt1hA2vBkNq1eMBEix6-7" target="ekt1hA2vBkNq1eMBEix6-60" edge="1">
          <mxGeometry relative="1" as="geometry">
            <mxPoint x="40" y="480" as="targetPoint" />
            <Array as="points">
              <mxPoint x="30" y="820" />
              <mxPoint x="30" y="490" />
            </Array>
          </mxGeometry>
        </mxCell>
        <mxCell id="ekt1hA2vBkNq1eMBEix6-7" value="light.scss" style="rounded=0;whiteSpace=wrap;html=1;fillColor=#dae8fc;strokeColor=#6c8ebf;" parent="1" vertex="1">
          <mxGeometry x="100" y="790" width="116" height="60" as="geometry" />
        </mxCell>
        <mxCell id="ekt1hA2vBkNq1eMBEix6-8" value="dark.scss" style="rounded=0;whiteSpace=wrap;html=1;fillColor=#dae8fc;strokeColor=#6c8ebf;" parent="1" vertex="1">
          <mxGeometry x="216" y="790" width="116" height="60" as="geometry" />
        </mxCell>
        <mxCell id="ekt1hA2vBkNq1eMBEix6-9" value="设计师管理" style="text;html=1;strokeColor=none;fillColor=none;align=center;verticalAlign=middle;whiteSpace=wrap;rounded=0;" parent="1" vertex="1">
          <mxGeometry x="20" y="30" width="70" height="20" as="geometry" />
        </mxCell>
        <mxCell id="ekt1hA2vBkNq1eMBEix6-10" value="" style="rounded=0;whiteSpace=wrap;html=1;fillColor=#1ba1e2;strokeColor=#006EAF;fontColor=#ffffff;" parent="1" vertex="1">
          <mxGeometry x="30" y="70" width="40" height="10" as="geometry" />
        </mxCell>
        <mxCell id="ekt1hA2vBkNq1eMBEix6-12" value="从主题编辑工具导出，包含完整ELEMENT样式" style="text;html=1;align=center;verticalAlign=middle;resizable=0;points=[];autosize=1;" parent="1" vertex="1">
          <mxGeometry x="76" y="65" width="260" height="20" as="geometry" />
        </mxCell>
        <mxCell id="ekt1hA2vBkNq1eMBEix6-14" value="" style="rounded=0;whiteSpace=wrap;html=1;fillColor=#dae8fc;strokeColor=#6c8ebf;" parent="1" vertex="1">
          <mxGeometry x="30" y="105" width="40" height="10" as="geometry" />
        </mxCell>
        <mxCell id="ekt1hA2vBkNq1eMBEix6-16" value="自主编写，cover了设计稿的变量" style="text;html=1;align=center;verticalAlign=middle;resizable=0;points=[];autosize=1;" parent="1" vertex="1">
          <mxGeometry x="70" y="100" width="190" height="20" as="geometry" />
        </mxCell>
        <mxCell id="ekt1hA2vBkNq1eMBEix6-19" style="edgeStyle=orthogonalEdgeStyle;rounded=0;orthogonalLoop=1;jettySize=auto;html=1;exitX=0.5;exitY=1;exitDx=0;exitDy=0;" parent="1" source="ekt1hA2vBkNq1eMBEix6-3" target="ekt1hA2vBkNq1eMBEix6-3" edge="1">
          <mxGeometry relative="1" as="geometry" />
        </mxCell>
        <mxCell id="gL-bYp8mY6dympsh6ueu-12" style="edgeStyle=orthogonalEdgeStyle;rounded=0;orthogonalLoop=1;jettySize=auto;html=1;exitX=0;exitY=0.5;exitDx=0;exitDy=0;entryX=0;entryY=0.5;entryDx=0;entryDy=0;" parent="1" edge="1">
          <mxGeometry relative="1" as="geometry">
            <mxPoint x="30" y="650" as="sourcePoint" />
            <mxPoint x="100" y="650" as="targetPoint" />
          </mxGeometry>
        </mxCell>
        <mxCell id="ekt1hA2vBkNq1eMBEix6-21" value="" style="rounded=0;whiteSpace=wrap;html=1;fillColor=#d5e8d4;strokeColor=#82b366;" parent="1" vertex="1">
          <mxGeometry x="30" y="210" width="40" height="10" as="geometry" />
        </mxCell>
        <mxCell id="ekt1hA2vBkNq1eMBEix6-22" value="自主编写，包含公共样式，以及重置导出的ELEMENT不能满足的样式" style="text;html=1;align=center;verticalAlign=middle;resizable=0;points=[];autosize=1;" parent="1" vertex="1">
          <mxGeometry x="73" y="205" width="380" height="20" as="geometry" />
        </mxCell>
        <mxCell id="ekt1hA2vBkNq1eMBEix6-23" value="工程师管理" style="text;html=1;strokeColor=none;fillColor=none;align=center;verticalAlign=middle;whiteSpace=wrap;rounded=0;" parent="1" vertex="1">
          <mxGeometry x="20" y="170" width="70" height="20" as="geometry" />
        </mxCell>
        <mxCell id="ekt1hA2vBkNq1eMBEix6-26" value="" style="rounded=0;whiteSpace=wrap;html=1;fillColor=#d5e8d4;strokeColor=#82b366;" parent="1" vertex="1">
          <mxGeometry x="664" y="75" width="40" height="10" as="geometry" />
        </mxCell>
        <mxCell id="ekt1hA2vBkNq1eMBEix6-27" value="" style="rounded=0;whiteSpace=wrap;html=1;fillColor=#1ba1e2;strokeColor=#006EAF;fontColor=#ffffff;" parent="1" vertex="1">
          <mxGeometry x="588" y="75" width="40" height="10" as="geometry" />
        </mxCell>
        <mxCell id="ekt1hA2vBkNq1eMBEix6-30" value="" style="rounded=0;whiteSpace=wrap;html=1;fillColor=#f8cecc;strokeColor=#b85450;" parent="1" vertex="1">
          <mxGeometry x="740" y="75" width="40" height="10" as="geometry" />
        </mxCell>
        <mxCell id="ekt1hA2vBkNq1eMBEix6-38" value="Label" style="endArrow=classic;html=1;" parent="1" edge="1">
          <mxGeometry relative="1" as="geometry">
            <mxPoint x="606" y="50" as="sourcePoint" />
            <mxPoint x="766" y="50" as="targetPoint" />
          </mxGeometry>
        </mxCell>
        <mxCell id="ekt1hA2vBkNq1eMBEix6-39" value="生效优先级" style="edgeLabel;resizable=0;html=1;align=center;verticalAlign=middle;" parent="ekt1hA2vBkNq1eMBEix6-38" connectable="0" vertex="1">
          <mxGeometry relative="1" as="geometry" />
        </mxCell>
        <mxCell id="ekt1hA2vBkNq1eMBEix6-40" value="低" style="edgeLabel;resizable=0;html=1;align=left;verticalAlign=bottom;" parent="ekt1hA2vBkNq1eMBEix6-38" connectable="0" vertex="1">
          <mxGeometry x="-1" relative="1" as="geometry" />
        </mxCell>
        <mxCell id="ekt1hA2vBkNq1eMBEix6-41" value="高" style="edgeLabel;resizable=0;html=1;align=right;verticalAlign=bottom;" parent="ekt1hA2vBkNq1eMBEix6-38" connectable="0" vertex="1">
          <mxGeometry x="1" relative="1" as="geometry" />
        </mxCell>
        <mxCell id="ekt1hA2vBkNq1eMBEix6-54" value="" style="endArrow=classic;html=1;" parent="1" edge="1">
          <mxGeometry x="0.125" y="-20" relative="1" as="geometry">
            <mxPoint x="760" y="119" as="sourcePoint" />
            <mxPoint x="616" y="119" as="targetPoint" />
            <mxPoint as="offset" />
          </mxGeometry>
        </mxCell>
        <mxCell id="ekt1hA2vBkNq1eMBEix6-56" value="低" style="edgeLabel;resizable=0;html=1;align=left;verticalAlign=bottom;" parent="ekt1hA2vBkNq1eMBEix6-54" connectable="0" vertex="1">
          <mxGeometry x="-1" relative="1" as="geometry" />
        </mxCell>
        <mxCell id="ekt1hA2vBkNq1eMBEix6-57" value="高" style="edgeLabel;resizable=0;html=1;align=right;verticalAlign=bottom;" parent="ekt1hA2vBkNq1eMBEix6-54" connectable="0" vertex="1">
          <mxGeometry x="1" relative="1" as="geometry" />
        </mxCell>
        <mxCell id="ekt1hA2vBkNq1eMBEix6-58" value="&lt;span style=&quot;font-size: 11px ; background-color: rgb(255 , 255 , 255)&quot;&gt;复用、维护性&lt;/span&gt;" style="text;html=1;align=center;verticalAlign=middle;resizable=0;points=[];autosize=1;" parent="1" vertex="1">
          <mxGeometry x="646" y="110" width="80" height="20" as="geometry" />
        </mxCell>
        <mxCell id="ekt1hA2vBkNq1eMBEix6-60" value="项目内样式" style="rounded=0;whiteSpace=wrap;html=1;fillColor=#f8cecc;strokeColor=#b85450;" parent="1" vertex="1">
          <mxGeometry x="100" y="460" width="120" height="60" as="geometry" />
        </mxCell>
        <mxCell id="gL-bYp8mY6dympsh6ueu-1" value="其他公共样式" style="rounded=0;whiteSpace=wrap;html=1;fillColor=#d5e8d4;strokeColor=#82b366;" parent="1" vertex="1">
          <mxGeometry x="100" y="620" width="120" height="60" as="geometry" />
        </mxCell>
        <mxCell id="gL-bYp8mY6dympsh6ueu-5" value="" style="rounded=0;whiteSpace=wrap;html=1;fillColor=#f8cecc;strokeColor=#b85450;" parent="1" vertex="1">
          <mxGeometry x="30" y="240" width="40" height="10" as="geometry" />
        </mxCell>
        <mxCell id="gL-bYp8mY6dympsh6ueu-7" value="自主编写，非公共样式" style="text;html=1;align=center;verticalAlign=middle;resizable=0;points=[];autosize=1;" parent="1" vertex="1">
          <mxGeometry x="76" y="235" width="140" height="20" as="geometry" />
        </mxCell>
        <mxCell id="gL-bYp8mY6dympsh6ueu-14" value="基础变量" style="rounded=0;whiteSpace=wrap;html=1;fillColor=#dae8fc;strokeColor=#6c8ebf;" parent="1" vertex="1">
          <mxGeometry x="510" y="789.5" width="120" height="60" as="geometry" />
        </mxCell>
        <mxCell id="gL-bYp8mY6dympsh6ueu-15" value="" style="strokeWidth=2;html=1;shape=mxgraph.flowchart.annotation_1;align=left;pointerEvents=1;" parent="1" vertex="1">
          <mxGeometry x="460" y="740" width="40" height="160" as="geometry" />
        </mxCell>
        <mxCell id="gL-bYp8mY6dympsh6ueu-17" value="element-ui/&lt;br&gt;" style="text;html=1;align=center;verticalAlign=middle;resizable=0;points=[];autosize=1;" parent="1" vertex="1">
          <mxGeometry x="45" y="1010" width="70" height="20" as="geometry" />
        </mxCell>
        <mxCell id="gL-bYp8mY6dympsh6ueu-18" value="vars/" style="text;html=1;align=center;verticalAlign=middle;resizable=0;points=[];autosize=1;" parent="1" vertex="1">
          <mxGeometry x="60" y="770" width="40" height="20" as="geometry" />
        </mxCell>
      </root>
    </mxGraphModel>
  </diagram>
</mxfile>
